<svg xmlns="http://www.w3.org/2000/svg" width="654.85" height="196.111" viewBox="0 0 173.262 51.888" version="1.1" id="svg8"><defs id="defs2"><path id="a" d="M-322 169h-642l36-229h642z"/><path id="c" d="M-322-76h-642l36-229h642z"/></defs><g id="layer1" style="display:inline" transform="translate(-144.365 -101.982)"><g id="g308" transform="matrix(.26458 0 0 .26458 151.133 101.865)" style="display:inline;opacity:1"><path d="M59 163v-15c-7 12-15 16-22 16-13 0-19-11-19-26 0-26 13-63 50-63 9 0 18 1 23 3l-10 48c-2 11-3 27-3 37zm8-71-5-1c-14 0-22 29-22 42 0 7 1 13 6 13 6 0 12-10 15-26zm33 52c4 2 8 4 14 3 6 0 10-4 10-9s-2-9-8-13c-8-6-11-14-11-21 0-16 12-29 32-29 7 0 13 1 16 3l-5 16c-2-2-6-3-10-3-7 0-12 4-12 10 0 4 3 7 7 10 10 8 13 16 13 23 0 19-13 30-33 30-8 0-15-2-18-4zm59 19 24-123h22l-9 47c6-7 13-12 22-12 11 0 16 7 16 19l-2 17-10 52h-22l10-52 1-11c0-5-2-7-5-7-6 0-12 7-15 20l-9 50zm85 0 17-87h22l-16 87zm21-109c0-7 5-14 13-14 7 0 10 6 10 12 0 8-6 13-13 13s-10-5-10-11zm28 90c3 2 7 4 14 3 6 0 10-4 10-9s-3-9-9-13c-7-6-11-14-11-21 0-16 13-29 32-29 8 0 14 1 17 3l-5 16c-2-2-7-3-10-3-7 0-12 4-12 10 0 4 3 7 7 10 9 8 13 16 13 23 0 19-14 30-34 30-8 0-15-2-18-4zm59 19 24-123h22l-9 47c5-7 13-12 22-12 11 0 16 7 16 19l-2 17-10 52h-23l11-52 1-11c0-5-2-7-6-7-5 0-12 7-14 20l-10 50zm85-67 8 2c5 0 8-3 8-8s-2-7-5-10-7-7-7-12c0-9 7-15 16-15 3 0 6 0 8 2l-2 5-6-1c-5 0-8 3-8 8 0 3 2 6 5 8 4 3 7 8 7 13 0 11-7 16-17 16l-9-2zm29 8 14-72h7l-5 29c4-6 8-8 13-8 6 0 8 4 8 10l-1 8-6 33h-7l6-33v-7c0-3-1-5-4-5-5 0-10 8-12 16l-5 29zm64 0 1-10c-5 9-10 10-13 10-6 0-10-5-10-14 0-15 8-37 28-37l9 1-6 29-2 21zm7-45h-3c-12 0-18 18-18 29 0 6 1 10 4 10 6 0 11-10 13-20zm27-6-10 50c-1 9-3 13-4 16-2 3-6 5-11 5h-5l1-6h3c4 0 7-1 9-12l9-53zm-6-12c0-3 2-6 5-6s4 3 4 5c0 4-2 6-5 6s-4-2-4-5zm7 63 10-51h7l-9 51zm11-63c1-3 3-6 5-6 3 0 5 3 4 5 0 4-2 6-5 6-2 0-4-2-4-5z" id="path206" style="display:inline"/></g></g></svg>