<svg xmlns="http://www.w3.org/2000/svg" xmlns:xlink="http://www.w3.org/1999/xlink" width="603" height="196"><path fill="none" stroke="#ff1744" stroke-width="5" stroke-miterlimit="10" d="M3 3h598v191H3z"/><path d="M59 163v-15c-7 12-15 16-22 16-13 0-19-11-19-26 0-26 13-63 50-63 9 0 18 1 23 3l-10 48c-2 11-3 27-3 37H59zm8-71l-5-1c-14 0-22 29-22 42 0 7 1 13 6 13 6 0 12-10 15-26l6-28zM100 144c4 2 8 4 14 3 6 0 10-4 10-9s-2-9-8-13c-8-6-11-14-11-21 0-16 12-29 32-29 7 0 13 1 16 3l-5 16c-2-2-6-3-10-3-7 0-12 4-12 10 0 4 3 7 7 10 10 8 13 16 13 23 0 19-13 30-33 30-8 0-15-2-18-4l5-16zM159 163l24-123h22l-9 47c6-7 13-12 22-12 11 0 16 7 16 19l-2 17-10 52h-22l10-52 1-11c0-5-2-7-5-7-6 0-12 7-15 20l-9 50h-23zM244 163l17-87h22l-16 87h-23zm21-109c0-7 5-14 13-14 7 0 10 6 10 12 0 8-6 13-13 13s-10-5-10-11zM293 144c3 2 7 4 14 3 6 0 10-4 10-9s-3-9-9-13c-7-6-11-14-11-21 0-16 13-29 32-29 8 0 14 1 17 3l-5 16c-2-2-7-3-10-3-7 0-12 4-12 10 0 4 3 7 7 10 9 8 13 16 13 23 0 19-14 30-34 30-8 0-15-2-18-4l6-16zM352 163l24-123h22l-9 47c5-7 13-12 22-12 11 0 16 7 16 19l-2 17-10 52h-23l11-52 1-11c0-5-2-7-6-7-5 0-12 7-14 20l-10 50h-22zM437 96l8 2c5 0 8-3 8-8s-2-7-5-10-7-7-7-12c0-9 7-15 16-15 3 0 6 0 8 2l-2 5-6-1c-5 0-8 3-8 8 0 3 2 6 5 8 4 3 7 8 7 13 0 11-7 16-17 16l-9-2 2-6zM466 104l14-72h7l-5 29c4-6 8-8 13-8 6 0 8 4 8 10l-1 8-6 33h-7l6-33v-7c0-3-1-5-4-5-5 0-10 8-12 16l-5 29h-8zM530 104l1-10c-5 9-10 10-13 10-6 0-10-5-10-14 0-15 8-37 28-37l9 1-6 29-2 21h-7zm7-45h-3c-12 0-18 18-18 29 0 6 1 10 4 10 6 0 11-10 13-20l4-19zM564 53l-10 50c-1 9-3 13-4 16-2 3-6 5-11 5h-5l1-6h3c4 0 7-1 9-12l9-53h8zm-6-12c0-3 2-6 5-6s4 3 4 5c0 4-2 6-5 6s-4-2-4-5zM565 104l10-51h7l-9 51h-8zm11-63c1-3 3-6 5-6 3 0 5 3 4 5 0 4-2 6-5 6-2 0-4-2-4-5z"/><g><path fill="none" stroke="#ff1744" stroke-width="5" stroke-miterlimit="10" d="M-942 443h598v191h-598z"/><path d="M-886 603v-15c-7 12-15 16-22 16-13 0-19-11-19-26 0-26 13-63 50-63 9 0 18 1 23 3l-10 48c-2 11-3 27-3 37h-19zm8-71l-5-1c-14 0-22 29-22 42 0 7 1 13 6 13 6 0 12-10 15-26l6-28zM-845 584c4 2 8 4 14 3 6 0 10-4 10-9s-2-9-8-13c-8-6-11-14-11-21 0-16 12-29 32-29 7 0 13 1 16 3l-5 16c-2-2-6-3-10-3-7 0-12 4-12 10 0 4 3 7 7 10 10 8 13 16 13 23 0 19-13 30-33 30-8 0-15-2-18-4l5-16zM-786 603l24-123h22l-9 47c6-7 13-12 22-12 11 0 16 7 16 19l-2 17-10 52h-22l10-52 1-11c0-5-2-7-5-7-6 0-12 7-15 20l-9 50h-23zM-701 603l17-87h22l-16 87h-23zm21-109c0-7 5-14 13-14 7 0 10 6 10 12 0 8-6 13-13 13s-10-5-10-11zM-652 584c3 2 7 4 14 3 6 0 10-4 10-9s-3-9-9-13c-7-6-11-14-11-21 0-16 13-29 32-29 8 0 14 1 17 3l-5 16c-2-2-7-3-10-3-7 0-12 4-12 10 0 4 3 7 7 10 9 8 13 16 13 23 0 19-14 30-34 30-8 0-15-2-18-4l6-16zM-593 603l24-123h22l-9 47c5-7 13-12 22-12 11 0 16 7 16 19l-2 17-10 52h-23l11-52 1-11c0-5-2-7-6-7-5 0-12 7-14 20l-10 50h-22zM-508 536l8 2c5 0 8-3 8-8s-2-7-5-10-7-7-7-12c0-9 7-15 16-15 3 0 6 0 8 2l-2 5-6-1c-5 0-8 3-8 8 0 3 2 6 5 8 4 3 7 8 7 13 0 11-7 16-17 16l-9-2 2-6zM-479 544l14-72h7l-5 29c4-6 8-8 13-8 6 0 8 4 8 10l-1 8-6 33h-7l6-33v-7c0-3-1-5-4-5-5 0-10 8-12 16l-5 29h-8zM-415 544l1-10c-5 9-10 10-13 10-6 0-10-5-10-14 0-15 8-37 28-37l9 1-6 29-2 21h-7zm7-45h-3c-12 0-18 18-18 29 0 6 1 10 4 10 6 0 11-10 13-20l4-19zM-381 493l-10 50c-1 9-3 13-4 16-2 3-6 5-11 5h-5l1-6h3c4 0 7-1 9-12l9-53h8zm-6-12c0-3 2-6 5-6s4 3 4 5c0 4-2 6-5 6s-4-2-4-5zM-380 544l10-51h7l-9 51h-8zm11-63c1-3 3-6 5-6 3 0 5 3 4 5 0 4-2 6-5 6-2 0-4-2-4-5z"/></g><g><path fill="none" stroke="#ff1744" stroke-width="5" stroke-miterlimit="10" d="M-339 393h-601l29-190h601z"/><path d="M-869 362v-14c-7 11-15 16-22 16-13 0-19-11-19-26 0-27 13-64 50-64 9 0 18 1 23 3l-10 49c-2 10-3 27-3 36h-19zm8-71l-5-1c-15 0-22 29-23 42 0 8 1 13 7 13s12-10 15-25l6-29zM-828 343c3 2 8 4 14 4s10-4 10-10c0-5-2-8-8-13-8-6-11-14-11-21 0-16 12-29 32-29 7 0 13 1 16 3l-5 16-10-2c-7 0-12 3-12 9 0 5 3 7 7 11 10 7 13 16 13 22 0 20-13 30-33 30-8 0-15-2-18-4l5-16zM-769 362l24-123h22l-9 47c6-7 13-12 22-12 11 0 16 8 16 19l-2 17-10 52h-22l10-52 1-11c0-4-2-7-5-7-6 0-12 8-15 21l-9 49h-23zM-684 362l17-87h22l-16 87h-23zm21-109c0-6 5-14 13-14 7 0 10 6 10 12 0 9-6 14-13 14s-10-5-10-12zM-635 343c3 2 7 4 14 4 6 0 10-4 10-10 0-5-3-8-9-13-7-6-11-14-11-21 0-16 13-29 32-29 8 0 13 1 17 3l-5 16-10-2c-8 0-12 3-12 9 0 5 3 7 7 11 9 7 13 16 13 22 0 20-14 30-34 30-8 0-15-2-18-4l6-16zM-576 362l23-123h23l-9 47c5-7 13-12 22-12 11 0 16 8 16 19l-3 17-9 52h-23l10-52 1-11c0-4-1-7-5-7-5 0-12 8-14 21l-10 49h-22z"/><g><path d="M-488 295c2 1 4 3 8 3 5 0 8-4 8-9 0-4-2-7-5-10-4-3-7-7-7-12 0-8 7-15 16-15l8 2-2 6-6-2c-5 0-8 4-8 8s2 6 4 8c4 4 8 8 8 13 0 11-8 17-17 17-4 0-8-2-9-3l2-6zM-459 303l14-72h7l-5 29c3-5 8-8 12-8 6 0 9 5 9 10l-1 9-6 32h-8l7-33v-6c0-4-1-6-4-6-5 0-10 8-12 16l-6 29h-7zM-395 303l1-9c-5 8-10 10-13 10-6 0-10-5-10-14 0-15 8-38 28-38l9 2-6 28-2 21h-7zm7-45h-4c-11 0-17 19-17 29 0 7 1 10 4 10 5 0 11-10 13-19l4-20zM-361 253l-10 50c-1 9-3 12-5 15-1 3-5 6-11 6l-4-1 1-6 3 1c3 0 6-2 8-13l10-52h8zm-6-13c0-3 2-5 5-5s4 2 4 5-2 5-5 5-4-2-4-5zM-360 303l10-50h7l-10 50h-7zm11-63c0-3 3-5 5-5 3 0 5 2 4 5 0 3-2 5-5 5s-4-2-4-5z"/></g></g><g><defs><path id="a" d="M-322 169h-642l36-229h642z"/></defs><clipPath id="b"><use xlink:href="#a" overflow="visible"/></clipPath><path clip-path="url(#b)" fill="none" stroke="#43a047" stroke-width="5" stroke-miterlimit="10" d="M-310 151h-633l30-190h633z"/><path d="M-338 92h-164l17-107h164c27 0 10 107-17 107z" fill="#43a047"/><g><path d="M-874 124l1-14h-1c-7 11-15 16-22 16-13 0-19-11-19-26 0-27 13-64 51-64 8 0 17 1 22 3l-9 49-4 36h-19zm8-71l-5-1c-14 0-22 29-22 42 0 8 1 13 6 13 6 0 12-10 15-25l6-29zM-833 105c4 2 8 4 14 4 7 0 10-4 10-10 0-5-2-8-8-13-8-6-11-14-11-21 0-16 12-29 32-29 8 0 13 1 16 3l-4 16-11-2c-7 0-11 3-11 9 0 5 2 7 6 11 10 7 13 16 13 22 0 20-13 30-33 30-8 0-15-2-18-4l5-16zM-773 124l23-123h22l-9 47h1c5-7 12-12 21-12 11 0 16 8 16 19l-2 17-10 52h-22l10-52 1-11c0-4-1-7-5-7-5 0-12 7-15 21l-9 49h-22zM-688 124l16-87h23l-17 87h-22zm20-109c0-6 5-14 13-14 7 0 11 6 10 12 0 9-6 14-12 14-8 0-11-5-11-12zM-640 105c3 2 8 4 14 4s10-4 10-10c0-5-2-8-9-13-7-6-11-14-11-21 0-16 13-29 33-29 7 0 13 1 16 3l-5 16-10-2c-7 0-12 3-12 9 0 5 3 7 7 11 10 7 13 16 13 22 0 20-13 30-33 30-8 0-15-2-18-4l5-16zM-581 124l24-123h22l-9 47c6-7 13-12 22-12 11 0 16 8 16 19l-2 17-10 52h-22l10-52 1-11c0-4-2-7-6-7-5 0-11 7-14 21l-10 49h-22z"/></g><g><path d="M-481 57c2 1 4 3 8 3 5 0 8-4 8-9 0-4-2-7-5-10s-6-7-6-12c0-8 6-15 15-15l8 2-2 6-6-2c-5 0-8 4-8 8s2 6 5 8c4 4 7 8 7 13 0 11-7 17-17 17l-9-3 2-6zM-452 65l14-72h7l-5 29c4-5 8-8 13-8 6 0 8 5 8 10l-1 9-6 32h-7l6-33 1-6c0-4-2-6-5-6-5 0-10 8-12 16l-5 29h-8zM-387 65V55c-5 9-9 11-13 11-6 0-9-5-9-14 0-15 8-38 27-38l9 2-6 28-2 21h-6zm6-45h-3c-11 0-18 18-18 29 0 7 1 10 5 10 5 0 10-10 12-19l4-20zM-354 15l-9 50-5 15c-2 3-6 6-11 6l-5-1 1-6 3 1c4 0 7-2 9-13l10-52h7zm-6-13c0-3 3-5 5-5 3 0 5 2 4 5 0 3-2 5-5 5s-4-2-4-5zM-353 65l10-50h7l-9 50h-8zm12-63c0-3 2-5 5-5s4 2 4 5c-1 3-3 5-6 5-2 0-4-2-3-5z"/></g></g><g><defs><path id="c" d="M-322-76h-642l36-229h642z"/></defs><clipPath id="d"><use xlink:href="#c" overflow="visible"/></clipPath><path clip-path="url(#d)" fill="none" stroke="#43a047" stroke-width="5" stroke-miterlimit="10" d="M-310-94h-633l30-190h633z"/><g><path d="M-338-153h-164l17-107h164c27 0 10 107-17 107z" fill="#43a047"/><path d="M-874-121l1-14h-1c-7 11-15 16-22 16-13 0-19-11-19-26 0-27 13-64 51-64 8 0 17 1 22 3l-9 49-4 36h-19zm8-71l-5-1c-14 0-22 29-22 42 0 8 1 13 6 13 6 0 12-10 15-25l6-29zM-833-140c4 2 8 4 14 4 7 0 10-4 10-10 0-5-2-8-8-13-8-6-11-14-11-21 0-16 12-29 32-29 8 0 13 1 16 3l-4 16-11-2c-7 0-11 3-11 9 0 5 2 7 6 11 10 7 13 16 13 22 0 20-13 30-33 30-8 0-15-2-18-4l5-16zM-773-121l23-123h22l-9 47h1c5-7 12-12 21-12 11 0 16 8 16 19l-2 17-10 52h-22l10-52 1-11c0-4-1-7-5-7-5 0-12 7-15 21l-9 49h-22zM-688-121l16-87h23l-17 87h-22zm20-109c0-6 5-14 13-14 7 0 11 6 10 12 0 9-6 14-12 14-8 0-11-5-11-12zM-640-140c3 2 8 4 14 4s10-4 10-10c0-5-2-8-9-13-7-6-11-14-11-21 0-16 13-29 33-29 7 0 13 1 16 3l-5 16-10-2c-7 0-12 3-12 9 0 5 3 7 7 11 10 7 13 16 13 22 0 20-13 30-33 30-8 0-15-2-18-4l5-16zM-581-121l24-123h22l-9 47c6-7 13-12 22-12 11 0 16 8 16 19l-2 17-10 52h-22l10-52 1-11c0-4-2-7-6-7-5 0-11 7-14 21l-10 49h-22z"/><g fill="#fff"><path d="M-481-188c2 1 4 3 8 3 5 0 8-4 8-9 0-4-2-7-5-10s-6-7-6-12c0-8 6-15 15-15l8 2-2 6-6-2c-5 0-8 4-8 8s2 6 5 8c4 4 7 8 7 13 0 11-7 17-17 17l-9-3 2-6zM-452-180l14-72h7l-5 29c4-5 8-8 13-8 6 0 8 5 8 10l-1 9-6 32h-7l6-33 1-6c0-4-2-6-5-6-5 0-10 8-12 16l-5 29h-8zM-387-180v-10c-5 9-9 11-13 11-6 0-9-5-9-14 0-15 8-38 27-38l9 2-6 28-2 21h-6zm6-45h-3c-11 0-18 18-18 29 0 7 1 10 5 10 5 0 10-10 12-19l4-20zM-354-230l-9 50-5 15c-2 3-6 6-11 6l-5-1 1-6 3 1c4 0 7-2 9-13l10-52h7zm-6-13c0-3 3-5 5-5 3 0 5 2 4 5 0 3-2 5-5 5s-4-2-4-5zM-353-180l10-50h7l-9 50h-8zm12-63c0-3 2-5 5-5s4 2 4 5c-1 3-3 5-6 5-2 0-4-2-3-5z"/></g></g></g></svg>