<?xml version="1.0" encoding="UTF-8" standalone="no"?>
<svg
   xmlns:dc="http://purl.org/dc/elements/1.1/"
   xmlns:cc="http://creativecommons.org/ns#"
   xmlns:rdf="http://www.w3.org/1999/02/22-rdf-syntax-ns#"
   xmlns:svg="http://www.w3.org/2000/svg"
   xmlns="http://www.w3.org/2000/svg"
   xmlns:sodipodi="http://sodipodi.sourceforge.net/DTD/sodipodi-0.dtd"
   xmlns:inkscape="http://www.inkscape.org/namespaces/inkscape"
   width="173.26231mm"
   height="51.887589mm"
   viewBox="0 0 173.26231 51.887588"
   version="1.1"
   id="svg8"
   inkscape:version="1.0.1 (c497b03c, 2020-09-10)"
   sodipodi:docname="logo1-borderless.svg">
  <defs
     id="defs2">
    <path
       id="a"
       d="m -322,169 h -642 l 36,-229 h 642 z" />
    <path
       id="c"
       d="m -322,-76 h -642 l 36,-229 h 642 z" />
  </defs>
  <sodipodi:namedview
     id="base"
     pagecolor="#ffffff"
     bordercolor="#666666"
     borderopacity="1.0"
     inkscape:pageopacity="0.0"
     inkscape:pageshadow="2"
     inkscape:zoom="0.7"
     inkscape:cx="411.07089"
     inkscape:cy="145.86166"
     inkscape:document-units="mm"
     inkscape:current-layer="g308"
     inkscape:document-rotation="0"
     showgrid="false"
     inkscape:window-width="1252"
     inkscape:window-height="705"
     inkscape:window-x="0"
     inkscape:window-y="23"
     inkscape:window-maximized="0"
     showguides="true"
     inkscape:lockguides="true" />
  <metadata
     id="metadata5">
    <rdf:RDF>
      <cc:Work
         rdf:about="">
        <dc:format>image/svg+xml</dc:format>
        <dc:type
           rdf:resource="http://purl.org/dc/dcmitype/StillImage" />
        <dc:title></dc:title>
      </cc:Work>
    </rdf:RDF>
  </metadata>
  <g
     inkscape:label="Layer 1"
     id="layer1"
     style="display:inline"
     inkscape:groupmode="layer"
     transform="translate(-144.36532,-101.98224)">
    <g
       id="g308"
       transform="matrix(0.26458333,0,0,0.26458333,151.1334,101.86458)"
       style="display:inline;opacity:1"
       inkscape:groupmode="layer">
      <path
         fill="none"
         stroke="#ff1744"
         stroke-width="5.21006"
         stroke-miterlimit="10"
         d="M -22.975117,3.0497432 H 626.66454 V 193.95025 H -22.975117 Z"
         id="path204"
         sodipodi:insensitive="true"
         style="display:none;stroke:#1fcfa8;stroke-opacity:1" />
      <path
         d="m 59,163 v -15 c -7,12 -15,16 -22,16 -13,0 -19,-11 -19,-26 0,-26 13,-63 50,-63 9,0 18,1 23,3 l -10,48 c -2,11 -3,27 -3,37 z m 8,-71 -5,-1 c -14,0 -22,29 -22,42 0,7 1,13 6,13 6,0 12,-10 15,-26 z m 33,52 c 4,2 8,4 14,3 6,0 10,-4 10,-9 0,-5 -2,-9 -8,-13 -8,-6 -11,-14 -11,-21 0,-16 12,-29 32,-29 7,0 13,1 16,3 l -5,16 c -2,-2 -6,-3 -10,-3 -7,0 -12,4 -12,10 0,4 3,7 7,10 10,8 13,16 13,23 0,19 -13,30 -33,30 -8,0 -15,-2 -18,-4 z m 59,19 24,-123 h 22 l -9,47 c 6,-7 13,-12 22,-12 11,0 16,7 16,19 l -2,17 -10,52 h -22 l 10,-52 1,-11 c 0,-5 -2,-7 -5,-7 -6,0 -12,7 -15,20 l -9,50 z m 85,0 17,-87 h 22 l -16,87 z M 265,54 c 0,-7 5,-14 13,-14 7,0 10,6 10,12 0,8 -6,13 -13,13 -7,0 -10,-5 -10,-11 z m 28,90 c 3,2 7,4 14,3 6,0 10,-4 10,-9 0,-5 -3,-9 -9,-13 -7,-6 -11,-14 -11,-21 0,-16 13,-29 32,-29 8,0 14,1 17,3 l -5,16 c -2,-2 -7,-3 -10,-3 -7,0 -12,4 -12,10 0,4 3,7 7,10 9,8 13,16 13,23 0,19 -14,30 -34,30 -8,0 -15,-2 -18,-4 z m 59,19 24,-123 h 22 l -9,47 c 5,-7 13,-12 22,-12 11,0 16,7 16,19 l -2,17 -10,52 h -23 l 11,-52 1,-11 c 0,-5 -2,-7 -6,-7 -5,0 -12,7 -14,20 l -10,50 z m 85,-67 8,2 c 5,0 8,-3 8,-8 0,-5 -2,-7 -5,-10 -3,-3 -7,-7 -7,-12 0,-9 7,-15 16,-15 3,0 6,0 8,2 l -2,5 -6,-1 c -5,0 -8,3 -8,8 0,3 2,6 5,8 4,3 7,8 7,13 0,11 -7,16 -17,16 l -9,-2 z m 29,8 14,-72 h 7 l -5,29 c 4,-6 8,-8 13,-8 6,0 8,4 8,10 l -1,8 -6,33 h -7 l 6,-33 v -7 c 0,-3 -1,-5 -4,-5 -5,0 -10,8 -12,16 l -5,29 z m 64,0 1,-10 c -5,9 -10,10 -13,10 -6,0 -10,-5 -10,-14 0,-15 8,-37 28,-37 l 9,1 -6,29 -2,21 z m 7,-45 h -3 c -12,0 -18,18 -18,29 0,6 1,10 4,10 6,0 11,-10 13,-20 z m 27,-6 -10,50 c -1,9 -3,13 -4,16 -2,3 -6,5 -11,5 h -5 l 1,-6 h 3 c 4,0 7,-1 9,-12 l 9,-53 z m -6,-12 c 0,-3 2,-6 5,-6 3,0 4,3 4,5 0,4 -2,6 -5,6 -3,0 -4,-2 -4,-5 z m 7,63 10,-51 h 7 l -9,51 z m 11,-63 c 1,-3 3,-6 5,-6 3,0 5,3 4,5 0,4 -2,6 -5,6 -2,0 -4,-2 -4,-5 z"
         id="path206"
         sodipodi:insensitive="true"
         style="display:inline" />
    </g>
  </g>
</svg>
