
<svg class="svg-elem" xmlns="http://www.w3.org/2000/svg" xmlns:xlink="http://www.w3.org/1999/xlink" width="82" height="82"><path fill="none" stroke="#ff1744" stroke-width="5" stroke-miterlimit="10" d="M-1142.5 413.5h622v191h-622z"/><path d="m-1074.6 573.9.7-14.6h-.5c-7 11.6-15.3 16-22.3 16-12.6 0-18.8-10.8-18.8-26.1 0-26.3 13.1-63.7 50.5-63.7a67 67 0 0 1 22.8 3.6l-9.7 48.3a201 201 0 0 0-3.5 36.5h-19.2zm8-71.3c-1.8-.4-3.4-.5-4.6-.5-14.6 0-22.4 29-22.6 41.7 0 7.7 1 13.2 6.6 13.2 6 0 11.7-10 14.9-25.8l5.7-28.6zm33.3 52.3a26 26 0 0 0 14 3.5c6.4-.1 10-4.2 10-9.8 0-4.8-2.3-8.1-8.4-13-7.5-6-11-13.6-11-21 0-16.1 12.4-29 32.2-29a35 35 0 0 1 16.3 3.1L-985 505a22.7 22.7 0 0 0-10.3-2.7c-7 0-11.5 3.8-11.5 9.6 0 4.5 2.4 7.2 6.5 10.5 9.8 7.5 13 16 13 22.8 0 19.2-13.3 29.9-33.2 29.9-8 0-15.1-2.3-18.2-4.5l5.4-15.6zm59.3 19 23.5-123h22.3l-9.1 46.7h.4c5.3-7 12.6-12 21.8-12 11 0 15.9 7.7 15.9 19 0 5-1 10.4-2.2 17l-10 52.3h-22.2l10.2-52.3c.5-3.4 1-8.2 1-11 0-4.3-1.6-7-5.3-7-5.2 0-12 7.5-14.4 20.7l-9.6 49.6h-22.2zm85 0 16.8-87h22.2l-16.7 87h-22.2zm20.9-109.2c0-6.4 4.6-13.7 12.4-13.7 7.3 0 10.7 5.5 10.5 11.6-.1 8.9-6.2 13.9-12.8 13.9-7 0-10.3-5.2-10.1-11.8zm27.4 90.2a26 26 0 0 0 14 3.5c6.4-.1 10-4.2 10-9.8 0-4.8-2.3-8.1-8.4-13-7.4-6-11-13.6-11-21 0-16.1 12.5-29 32.2-29a35 35 0 0 1 16.4 3.1l-4.8 16.2a22.7 22.7 0 0 0-10.4-2.7c-7 0-11.5 3.8-11.5 9.6 0 4.5 2.5 7.2 6.6 10.5 9.7 7.5 13 16 13 22.8 0 19.2-13.4 29.9-33.3 29.9-8 0-15.1-2.3-18.1-4.5l5.3-15.6zm59.4 19 23.5-123h22.2l-9 46.7h.3c5.3-7 12.6-12 21.9-12 11 0 15.8 7.7 15.8 19 0 5-1 10.4-2.2 17l-10 52.3h-22.1l10-52.3a85 85 0 0 0 1.2-11c0-4.3-1.6-7-5.4-7-5.1 0-11.9 7.5-14.4 20.7l-9.6 49.6h-22.2zm85.1-67c1.6 1 4 2.4 7.8 2.4 5.1-.1 8.1-3.8 8.1-8.5 0-4.5-2.2-7.2-5-9.8-3.5-3-6.6-7.4-6.6-12.2 0-8.5 6.2-15.1 15.7-15.1 3.3 0 6.2.8 7.7 2l-2 5.6c-1.5-.8-3.8-1.5-5.9-1.5-5.1 0-8 3.4-8 7.8 0 3.9 2.2 6.2 4.6 8.3 4 3.5 7 8.1 7 13.2 0 10.8-7 16.2-16.3 16.2-4 0-7.9-1.6-9.3-2.7l2.2-5.7zm29.1 7.8 13.5-71.8h7.5l-5.4 28.6h.2c3.6-5.1 7.6-7.8 12.5-7.8 6 0 8.5 4.6 8.5 10.1 0 2.7-.3 5-1 8.4l-6 32.5h-7.5l6.2-32.8c.4-2.2.6-4.2.6-6.7 0-3.1-1.3-5.1-4.3-5.1-5 0-10.4 7.5-12 15.8l-5.5 28.8h-7.3zm64.1 0c0-2.8.4-5.6.7-9.6h-.2c-5 8.5-9.5 10.4-13.2 10.4-5.8 0-9.3-5-9.3-14.1 0-15.2 8-37.7 27.5-37.7 3.5 0 7.1.7 9.2 1.6l-5.8 28.7c-1.4 6.8-2.3 15-2.2 20.7h-6.7zm6.3-44.6c-1-.2-2-.3-3.1-.3-11.2 0-17.4 18.3-17.8 29.3 0 6.3 1.2 10 4.7 10 5 0 10.5-10 12.4-20l3.8-19zm27.3-5.6-9.5 50a42.2 42.2 0 0 1-4.9 15.3c-2 3.1-5.8 5.6-11 5.6-1.6 0-3.2-.1-4.3-.5l.7-6c.9 0 1.9.3 3.1.3 3.5 0 6.5-1.7 8.5-12.2l9.9-52.5h7.5zm-5.9-12.8c.2-2.7 2.3-5.2 5-5.2 3 0 4.4 2.1 4.2 4.8-.3 3.4-2.6 5.3-5.3 5.3-2.7 0-4-2-3.9-4.9zm7.1 63 9.5-50.2h7.5l-9.6 50.2h-7.4zm11.3-63c.1-2.7 2.2-5.2 5-5.2 2.9 0 4.2 2.1 4 4.8-.2 3.4-2.5 5.3-5.2 5.3s-4.1-2-3.8-4.9z"/><path fill="none" stroke="#ff1744" stroke-width="5" stroke-miterlimit="10" d="M-546.1 359.5h-600.3l28.8-190h600.3z"/><path d="M-1076.3 329.3c.2-4.6.6-9.5.7-14.6h-.5c-7 11.6-15.3 16-22.2 16-12.6 0-18.9-10.9-18.9-26.1 0-26.4 13.2-63.7 50.5-63.7a67 67 0 0 1 22.8 3.6l-9.6 48.3a201 201 0 0 0-3.6 36.5h-19.2zm8-71.3c-1.7-.4-3.3-.6-4.6-.6-14.6 0-22.4 29-22.6 41.8 0 7.7 1 13.2 6.6 13.2 6 0 11.7-10 15-25.8l5.6-28.6zm33.3 52.2a26 26 0 0 0 14 3.6c6.5-.2 10-4.3 10-9.8 0-4.8-2.3-8.2-8.3-13-7.5-6-11-13.6-11-21.1 0-16 12.4-29 32.1-29a35 35 0 0 1 16.4 3.2l-4.8 16.2a22.7 22.7 0 0 0-10.3-2.7c-7.2 0-11.6 3.7-11.6 9.6 0 4.5 2.5 7.1 6.6 10.5 9.8 7.5 13 16 13 22.8 0 19.2-13.4 29.8-33.3 29.8-8 0-15.1-2.3-18.1-4.4l5.3-15.7zm59.4 19.1 23.5-123h22.2l-9 46.7h.3c5.3-7 12.6-12.1 21.9-12.1 11 0 15.8 7.8 15.8 19 0 5-.9 10.5-2.1 17l-10 52.4h-22.2l10.1-52.3c.5-3.4 1-8.2 1-11 0-4.3-1.5-7-5.3-7-5.1 0-11.9 7.5-14.4 20.7l-9.6 49.6h-22.2zm85 0 16.7-87h22.3l-16.7 87h-22.3zm20.8-109.2c0-6.4 4.7-13.7 12.5-13.7 7.3 0 10.7 5.5 10.5 11.6-.2 8.9-6.3 13.8-12.8 13.8-7.1 0-10.3-5.1-10.2-11.7zm27.4 90.1a26 26 0 0 0 14 3.6c6.5-.2 10-4.3 10-9.8 0-4.8-2.3-8.2-8.3-13-7.5-6-11-13.6-11-21.1 0-16 12.4-29 32.1-29a35 35 0 0 1 16.4 3.2l-4.8 16.2a22.7 22.7 0 0 0-10.3-2.7c-7.1 0-11.6 3.7-11.6 9.6 0 4.5 2.5 7.1 6.6 10.5 9.8 7.5 13 16 13 22.8 0 19.2-13.4 29.8-33.3 29.8-8 0-15-2.3-18.1-4.4l5.3-15.7zm59.4 19.1 23.5-123h22.2l-9 46.7h.3c5.4-7 12.6-12.1 21.9-12.1 11 0 15.8 7.8 15.8 19 0 5-.9 10.5-2.1 17l-10 52.4h-22.2l10.1-52.3a85 85 0 0 0 1.1-11c0-4.3-1.6-7-5.3-7-5.2 0-12 7.5-14.4 20.7l-9.6 49.6H-783zm88.2-67c1.5 1 4 2.4 7.8 2.4 5-.2 8-3.8 8-8.5 0-4.5-2.1-7.2-5-9.8-3.5-3.1-6.6-7.5-6.6-12.2 0-8.5 6.3-15.2 15.7-15.2 3.3 0 6.2.9 7.8 2l-2.1 5.7c-1.5-.8-3.7-1.5-5.8-1.5-5.2 0-8.1 3.4-8.1 7.7 0 4 2.3 6.2 4.7 8.4 4 3.4 7 8.1 7 13.2 0 10.8-7 16.2-16.4 16.2-3.9 0-7.8-1.6-9.3-2.7l2.3-5.7zm29 7.7 13.5-71.7h7.6l-5.4 28.6h.2c3.5-5.2 7.6-7.9 12.4-7.9 6 0 8.5 4.7 8.5 10.2 0 2.7-.3 5-1 8.4l-6 32.4h-7.5l6.2-32.7c.4-2.2.7-4.3.7-6.8 0-3-1.4-5-4.4-5-5 0-10.4 7.4-12 15.8l-5.4 28.7h-7.4zm64.1 0c.1-2.8.4-5.6.7-9.5h-.2c-5 8.5-9.4 10.4-13.1 10.4-5.9 0-9.4-5.1-9.4-14.1 0-15.3 8.1-37.8 27.5-37.8 3.5 0 7.1.8 9.2 1.7l-5.8 28.7c-1.3 6.8-2.3 15-2.2 20.6h-6.7zm6.3-44.5-3-.3c-11.3 0-17.5 18.3-17.8 29.3-.1 6.3 1.1 10 4.6 10 5.1 0 10.5-10 12.5-20l3.7-19zm27.3-5.6-9.4 50a42.2 42.2 0 0 1-5 15.3c-1.9 3-5.7 5.6-10.9 5.6-1.7 0-3.2-.1-4.4-.5l.8-6c.8 0 1.8.3 3 .3 3.5 0 6.5-1.7 8.6-12.3l9.8-52.4h7.5zm-5.8-12.8c0-2.7 2.3-5.3 5-5.3 2.9 0 4.3 2.2 4.1 4.9-.3 3.4-2.6 5.3-5.3 5.3-2.7 0-4-2-3.8-4.9zm7 62.9 9.6-50.1h7.5l-9.7 50.1h-7.4zm11.3-62.9c.2-2.7 2.2-5.3 5-5.3 3 0 4.3 2.2 4 4.9-.1 3.4-2.4 5.3-5.1 5.3-2.7 0-4.2-2-3.9-4.9z"/><defs><path id="a" d="M-528.8 136h-641.8l35.7-229H-493z"/></defs><clipPath id="b"><use xlink:href="#a" overflow="visible"/></clipPath><path clip-path="url(#b)" fill="none" stroke="#43a047" stroke-width="5" stroke-miterlimit="10" d="M-516.8 117.5H-1150l30.4-190h633.2z"/><path d="M-545.1 59h-163.7l17-106.6s112 .8 163.6 0c27-.5 10 106.6-17 106.6z" fill="#43a047"/><path d="m-1081 91.3.8-14.6h-.6c-7 11.5-15.3 16-22.2 16-12.6 0-18.9-10.9-18.9-26.2 0-26.3 13.2-63.6 50.5-63.6a67 67 0 0 1 22.8 3.5l-9.6 48.4a201 201 0 0 0-3.5 36.5h-19.3zm8-71.3c-1.7-.4-3.3-.6-4.6-.6-14.6 0-22.4 29-22.6 41.8 0 7.7 1.1 13.2 6.6 13.2 6 0 11.8-10 15-25.8l5.7-28.6zm33.3 52.2a26 26 0 0 0 14 3.6c6.5-.2 10-4.3 10-9.8 0-4.8-2.3-8.2-8.3-13-7.5-6-11-13.7-11-21.1 0-16 12.4-29 32.1-29A35 35 0 0 1-986.5 6l-4.8 16.2a22.7 22.7 0 0 0-10.3-2.7c-7.1 0-11.6 3.7-11.6 9.6 0 4.5 2.5 7.1 6.6 10.5 9.8 7.5 13 16 13 22.8 0 19.2-13.4 29.8-33.3 29.8-8 0-15-2.3-18.1-4.4l5.3-15.7zm59.4 19.1 23.5-123h22.2l-9 46.7h.3c5.3-7 12.6-12.1 21.9-12.1 11 0 15.8 7.8 15.8 19 0 5-.9 10.5-2.1 17l-10 52.4h-22.2l10.1-52.3c.6-3.4 1.1-8.2 1.1-11 0-4.3-1.6-7-5.3-7-5.2 0-12 7.5-14.4 20.7l-9.6 49.6h-22.3zm85 0 16.8-87h22.2l-16.7 87h-22.3zM-874.4-18c0-6.4 4.6-13.7 12.4-13.7 7.3 0 10.7 5.5 10.5 11.6-.2 8.8-6.2 13.8-12.8 13.8-7.1 0-10.3-5.1-10.1-11.7zm27.4 90.2a26 26 0 0 0 14 3.6c6.4-.2 10-4.3 10-9.8 0-4.8-2.4-8.2-8.4-13-7.5-6-11-13.7-11-21.1 0-16 12.4-29 32.2-29A35 35 0 0 1-794 6l-4.8 16.2a22.7 22.7 0 0 0-10.3-2.7c-7.1 0-11.6 3.7-11.6 9.6 0 4.5 2.5 7.1 6.6 10.5 9.8 7.5 13 16 13 22.8 0 19.2-13.3 29.8-33.3 29.8-8 0-15-2.3-18-4.4l5.2-15.7zm59.4 19.1 23.4-123h22.3L-751 15h.3c5.4-7 12.7-12.1 22-12.1 11 0 15.7 7.8 15.7 19 0 5-.9 10.5-2.1 17l-10 52.4h-22.2L-737 39a85 85 0 0 0 1-11c0-4.3-1.6-7-5.3-7-5.2 0-12 7.5-14.4 20.7l-9.6 49.6h-22.2zm100.1-67c1.6 1 4 2.3 7.8 2.3 5 0 8-3.7 8-8.5 0-4.4-2.1-7.1-5-9.7-3.4-3.1-6.5-7.5-6.5-12.2 0-8.5 6.2-15.2 15.6-15.2 3.3 0 6.2.9 7.8 2l-2 5.7c-1.5-.8-3.8-1.6-5.9-1.6-5.2 0-8 3.5-8 7.8 0 4 2.2 6.2 4.6 8.4 4 3.4 7 8.1 7 13.2 0 10.8-7 16.2-16.3 16.2-4 0-8-1.6-9.4-2.7l2.3-5.7zm29 7.7 13.5-71.7h7.6l-5.4 28.6h.2c3.5-5.2 7.6-7.9 12.4-7.9 6 0 8.5 4.7 8.5 10.2 0 2.7-.3 5-.9 8.4l-6.1 32.4h-7.5L-630-.7c.5-2.2.7-4.3.7-6.8 0-3-1.4-5-4.4-5-5 0-10.4 7.4-11.9 15.8l-5.5 28.7h-7.4zm64.1 0c.1-2.8.4-5.6.7-9.5h-.2c-5 8.5-9.4 10.4-13.1 10.4-5.8 0-9.4-5.1-9.4-14.1 0-15.3 8.1-37.8 27.5-37.8 3.5 0 7.2.8 9.2 1.7l-5.8 28.7c-1.3 6.7-2.2 15-2.1 20.6h-6.8zm6.3-44.5c-.9-.3-2-.4-3-.4-11.3 0-17.5 18.4-17.8 29.4-.1 6.3 1.1 10 4.7 10 5 0 10.4-10 12.4-20l3.7-19zm27.3-5.6-9.4 50a42.2 42.2 0 0 1-4.9 15.3c-2 3-5.8 5.6-11 5.6-1.6 0-3.2-.1-4.3-.5l.7-6c.8 0 1.9.3 3.1.3 3.4 0 6.4-1.7 8.5-12.3l9.8-52.4h7.5zm-5.8-12.8c.1-2.7 2.3-5.3 5-5.3 2.9 0 4.3 2.2 4.1 4.9-.3 3.4-2.6 5.3-5.3 5.3-2.7 0-4-2-3.8-4.9zm7.1 62.9 9.5-50h7.5l-9.7 50.1h-7.3zm11.3-62.9c0-2.7 2.1-5.3 5-5.3 2.8 0 4.2 2.2 4 4.9-.2 3.4-2.5 5.3-5.2 5.3s-4.1-2-3.8-4.9z"/><defs><path id="c" d="M-528.8-109h-641.8l35.7-229H-493z"/></defs><clipPath id="d"><use xlink:href="#c" overflow="visible"/></clipPath><path clip-path="url(#d)" fill="none" stroke="#43a047" stroke-width="5" stroke-miterlimit="10" d="M-516.8-127.5H-1150l30.4-190h633.2z"/><path d="M-545.1-186h-163.7l17-106.6s112 .8 163.6 0c27-.5 10 106.6-17 106.6z" fill="#43a047"/><path d="m-1081-153.7.8-14.6h-.6c-7 11.5-15.3 16-22.2 16-12.6 0-18.9-10.9-18.9-26.2 0-26.3 13.2-63.6 50.5-63.6a67 67 0 0 1 22.8 3.5l-9.6 48.4a201 201 0 0 0-3.5 36.5h-19.3zm8-71.3c-1.7-.4-3.3-.6-4.6-.6-14.6 0-22.4 29-22.6 41.8 0 7.7 1.1 13.2 6.6 13.2 6 0 11.8-10 15-25.8l5.7-28.6zm33.3 52.2a26 26 0 0 0 14 3.6c6.5-.2 10-4.3 10-9.8 0-4.8-2.3-8.2-8.3-13-7.5-6-11-13.7-11-21.1 0-16 12.4-29 32.1-29a35 35 0 0 1 16.4 3.2l-4.8 16.2a22.7 22.7 0 0 0-10.3-2.7c-7.1 0-11.6 3.7-11.6 9.6 0 4.5 2.5 7.1 6.6 10.5 9.8 7.5 13 16 13 22.8 0 19.2-13.4 29.8-33.3 29.8-8 0-15-2.3-18.1-4.4l5.3-15.7zm59.4 19.1 23.5-123h22.2l-9 46.7h.3c5.3-7 12.6-12.1 21.9-12.1 11 0 15.8 7.8 15.8 19 0 5-.9 10.5-2.1 17l-10 52.4h-22.2l10.1-52.3c.6-3.4 1.1-8.2 1.1-11 0-4.3-1.6-7-5.3-7-5.2 0-12 7.5-14.4 20.7l-9.6 49.6h-22.3zm85 0 16.8-87h22.2l-16.7 87h-22.3zm20.9-109.2c0-6.4 4.6-13.7 12.4-13.7 7.3 0 10.7 5.5 10.5 11.6-.2 8.8-6.2 13.8-12.8 13.8-7.1 0-10.3-5.1-10.1-11.7zm27.4 90.1a26 26 0 0 0 14 3.6c6.4-.2 10-4.3 10-9.8 0-4.8-2.4-8.2-8.4-13-7.5-6-11-13.7-11-21.1 0-16 12.4-29 32.2-29A35 35 0 0 1-794-239l-4.8 16.2a22.7 22.7 0 0 0-10.3-2.7c-7.1 0-11.6 3.7-11.6 9.6 0 4.5 2.5 7.1 6.6 10.5 9.8 7.5 13 16 13 22.8 0 19.2-13.3 29.8-33.3 29.8-8 0-15-2.3-18-4.4l5.2-15.7zm59.4 19.1 23.4-123h22.3L-751-230h.3c5.4-7 12.7-12.1 22-12.1 11 0 15.7 7.8 15.7 19 0 5-.9 10.5-2.1 17l-10 52.4h-22.2L-737-206a85 85 0 0 0 1-11c0-4.3-1.6-7-5.3-7-5.2 0-12 7.5-14.4 20.7l-9.6 49.6h-22.2z"/><path d="M-687.5-220.7c1.6 1 4 2.3 7.8 2.3 5 0 8-3.7 8-8.5 0-4.4-2.1-7.1-5-9.7-3.4-3.1-6.5-7.5-6.5-12.2 0-8.5 6.2-15.2 15.6-15.2 3.3 0 6.2.9 7.8 2l-2 5.7c-1.5-.8-3.8-1.6-5.9-1.6-5.2 0-8 3.5-8 7.8 0 4 2.2 6.2 4.6 8.4 4 3.4 7 8.1 7 13.2 0 10.8-7 16.2-16.3 16.2-4 0-8-1.6-9.4-2.7l2.3-5.7zm29 7.7 13.5-71.7h7.6l-5.4 28.6h.2c3.5-5.2 7.6-7.9 12.4-7.9 6 0 8.5 4.7 8.5 10.2 0 2.7-.3 5-.9 8.4l-6.1 32.4h-7.5l6.2-32.7c.5-2.2.7-4.3.7-6.8 0-3-1.4-5-4.4-5-5 0-10.4 7.4-11.9 15.8l-5.5 28.7h-7.4zm64.1 0c.1-2.8.4-5.6.7-9.5h-.2c-5 8.5-9.4 10.4-13.1 10.4-5.8 0-9.4-5.1-9.4-14.1 0-15.3 8.1-37.8 27.5-37.8 3.5 0 7.2.8 9.2 1.7l-5.8 28.7c-1.3 6.7-2.2 15-2.1 20.6h-6.8zm6.3-44.5c-.9-.3-2-.4-3-.4-11.3 0-17.5 18.4-17.8 29.4-.1 6.3 1.1 10 4.7 10 5 0 10.4-10 12.4-20l3.7-19zm27.3-5.6-9.4 50a42.2 42.2 0 0 1-4.9 15.3c-2 3-5.8 5.6-11 5.6-1.6 0-3.2-.1-4.3-.5l.7-6c.8 0 1.9.3 3.1.3 3.4 0 6.4-1.7 8.5-12.3l9.8-52.4h7.5zm-5.8-12.8c.1-2.7 2.3-5.3 5-5.3 2.9 0 4.3 2.2 4.1 4.9-.3 3.4-2.6 5.3-5.3 5.3-2.7 0-4-2-3.8-4.9zm7.1 62.9 9.5-50.1h7.5l-9.7 50.1h-7.3zm11.3-62.9c0-2.7 2.1-5.3 5-5.3 2.8 0 4.2 2.2 4 4.9-.2 3.4-2.5 5.3-5.2 5.3s-4.1-2-3.8-4.9z" fill="#fff"/><path fill="#ffffff0f" stroke="#2fff00" stroke-width="5" stroke-miterlimit="10" d="M2.5 2.5h77v77h-77z"/><path d="m36.4 66.5.4-6.9h-.3c-3.2 5.5-7.1 7.5-10.4 7.5-6 0-8.8-5-8.8-12.2 0-12.3 6.1-29.8 23.6-29.8 4.1 0 8.2.7 10.7 1.7L47 49.4a94 94 0 0 0-1.7 17h-9zM40.2 33l-2.2-.3c-6.8 0-10.5 13.6-10.6 19.6 0 3.6.5 6.2 3.1 6.2 2.9 0 5.5-4.7 7-12.1L40.2 33zm11.6 2.1c.7.5 1.9 1.1 3.6 1.1 2.4 0 3.8-1.7 3.8-4 0-2-1-3.3-2.4-4.5-1.6-1.5-3-3.5-3-5.8 0-4 2.9-7 7.3-7 1.5 0 2.9.3 3.6.9l-1 2.6a6 6 0 0 0-2.7-.7c-2.4 0-3.8 1.6-3.8 3.7 0 1.8 1.1 2.9 2.2 3.9 1.9 1.6 3.3 3.8 3.3 6.2 0 5-3.3 7.5-7.6 7.5-1.9 0-3.7-.7-4.4-1.2l1-2.7z"/></svg>